<svg xmlns="http://www.w3.org/2000/svg" viewBox="0 0 800 500" width="800" height="500">
  <defs>
    <linearGradient id="g9" x1="0" y1="0" x2="1" y2="1">
      <stop offset="0%" stop-color="#3a2a1a"/>
      <stop offset="100%" stop-color="#1a0a0a"/>
    </linearGradient>
  </defs>
  <rect width="800" height="500" fill="url(#g9)"/>
  <rect x="40" y="40" width="720" height="420" fill="rgba(255,255,255,0.06)" rx="12"/>
  <text x="60" y="120" font-family="Inter, sans-serif" font-size="32" font-weight="700" fill="#fff">Wiserfox</text>
  <text x="60" y="160" font-family="Inter, sans-serif" font-size="18" fill="rgba(255,255,255,0.7)">Loan &amp; E-Filing Services</text>
  <g transform="translate(60,220)">
    <rect width="200" height="50" rx="6" fill="rgba(255,255,255,0.1)"/>
    <text x="100" y="32" text-anchor="middle" font-family="Inter, sans-serif" font-size="13" fill="#fff">Home Loan</text>
  </g>
  <g transform="translate(280,220)">
    <rect width="200" height="50" rx="6" fill="rgba(255,255,255,0.1)"/>
    <text x="100" y="32" text-anchor="middle" font-family="Inter, sans-serif" font-size="13" fill="#fff">Business Loan</text>
  </g>
  <g transform="translate(500,220)">
    <rect width="200" height="50" rx="6" fill="rgba(255,255,255,0.1)"/>
    <text x="100" y="32" text-anchor="middle" font-family="Inter, sans-serif" font-size="13" fill="#fff">Personal Loan</text>
  </g>
  <g transform="translate(60,290)">
    <rect width="640" height="50" rx="6" fill="rgba(255,255,255,0.1)"/>
    <text x="320" y="32" text-anchor="middle" font-family="Inter, sans-serif" font-size="13" fill="#fff">+ GST Filing + Income Tax + 3 more</text>
  </g>
  <g transform="translate(60,360)">
    <rect width="640" height="60" rx="6" fill="rgba(255,255,255,0.08)"/>
    <text x="320" y="35" text-anchor="middle" font-family="Inter, sans-serif" font-size="14" fill="#fff">6 loan services + 3 e-filing flows</text>
    <text x="320" y="52" text-anchor="middle" font-family="Inter, sans-serif" font-size="11" fill="rgba(255,255,255,0.6)">wiserfox.co.in</text>
  </g>
  <g transform="translate(540,80)" opacity="0.85">
    <circle cx="80" cy="80" r="80" fill="rgba(255,255,255,0.1)"/>
    <text x="80" y="95" text-anchor="middle" font-family="Inter, sans-serif" font-size="64" fill="#fff">🦊</text>
  </g>
</svg>
